HIERARCHY
ROOT Hips
{
	OFFSET -209.892197 83.335617 436.453888
	CHANNELS 6 Xposition Yposition Zposition Zrotation Yrotation Xrotation 
	JOINT LeftUpLeg
	{
		OFFSET 0.103458 1.857834 10.548502
		CHANNELS 3 Zrotation Yrotation Xrotation
		JOINT LeftLeg
		{
			OFFSET 43.500008 -0.000027 -0.000002
			CHANNELS 3 Zrotation Yrotation Xrotation
			JOINT LeftFoot
			{
				OFFSET 42.372200 -0.000011 -0.000010
				CHANNELS 3 Zrotation Yrotation Xrotation
				JOINT LeftToe
				{
					OFFSET 17.300005 0.000001 0.000004
					CHANNELS 3 Zrotation Yrotation Xrotation
					End Site
					{
						OFFSET 0.000000 0.000000 0.000000
					}
				}
			}
		}
	}
	JOINT RightUpLeg
	{
		OFFSET 0.103456 1.857835 -10.548497
		CHANNELS 3 Zrotation Yrotation Xrotation
		JOINT RightLeg
		{
			OFFSET 43.500038 -0.000031 0.000015
			CHANNELS 3 Zrotation Yrotation Xrotation
			JOINT RightFoot
			{
				OFFSET 42.372269 -0.000019 0.000010
				CHANNELS 3 Zrotation Yrotation Xrotation
				JOINT RightToe
				{
					OFFSET 17.299995 -0.000004 0.000006
					CHANNELS 3 Zrotation Yrotation Xrotation
					End Site
					{
						OFFSET 0.000000 0.000000 0.000000
					}
				}
			}
		}
	}
	JOINT Spine
	{
		OFFSET 6.901966 -2.603724 0.000006
		CHANNELS 3 Zrotation Yrotation Xrotation
		JOINT Spine1
		{
			OFFSET 12.588104 -0.000002 0.000002
			CHANNELS 3 Zrotation Yrotation Xrotation
			JOINT Spine2
			{
				OFFSET 12.343198 0.000013 -0.000014
				CHANNELS 3 Zrotation Yrotation Xrotation
				JOINT Neck
				{
					OFFSET 25.832897 -0.000017 -0.000002
					CHANNELS 3 Zrotation Yrotation Xrotation
					JOINT Head
					{
						OFFSET 11.766611 0.000019 0.000005
						CHANNELS 3 Zrotation Yrotation Xrotation
						End Site
						{
							OFFSET 0.000000 0.000000 0.000000
						}
					}
				}
				JOINT LeftShoulder
				{
					OFFSET 19.745913 -1.480379 6.000116
					CHANNELS 3 Zrotation Yrotation Xrotation
					JOINT LeftArm
					{
						OFFSET 11.284129 0.000004 -0.000028
						CHANNELS 3 Zrotation Yrotation Xrotation
						JOINT LeftForeArm
						{
							OFFSET 33.000038 0.000006 0.000033
							CHANNELS 3 Zrotation Yrotation Xrotation
							JOINT LeftHand
							{
								OFFSET 25.200012 -0.000007 -0.000007
								CHANNELS 3 Zrotation Yrotation Xrotation
								End Site
								{
									OFFSET 0.000000 0.000000 0.000000
								}
							}
						}
					}
				}
				JOINT RightShoulder
				{
					OFFSET 19.746098 -1.480396 -6.000068
					CHANNELS 3 Zrotation Yrotation Xrotation
					JOINT RightArm
					{
						OFFSET 11.284148 -0.000029 -0.000023
						CHANNELS 3 Zrotation Yrotation Xrotation
						JOINT RightForeArm
						{
							OFFSET 33.000088 0.000013 0.000010
							CHANNELS 3 Zrotation Yrotation Xrotation
							JOINT RightHand
							{
								OFFSET 25.199785 0.000162 0.000438
								CHANNELS 3 Zrotation Yrotation Xrotation
								End Site
								{
									OFFSET 0.000000 0.000000 0.000000
								}
							}
						}
					}
				}
			}
		}
	}
}
MOTION
Frames: 9
Frame Time: 0.033333
-259.536194 75.947769 118.940102 88.374049 0.383368 -107.808300 147.023797 -9.742297 157.841860 -73.680953 4.101161 -6.908796 106.479610 4.259995 -6.333426 21.454553 0.003094 0.000000 132.032748 8.581607 -175.005088 -82.832320 -2.715133 15.521875 90.306712 -9.892323 3.304458 21.454555 -0.003115 -0.000017 12.410016 0.179204 0.113217 14.807640 0.342358 0.248453 14.489545 0.344003 0.246393 5.224733 17.064365 7.721291 -29.202709 -20.482376 26.113700 106.062948 -72.516173 73.893727 -60.667584 16.246884 -76.179525 -81.043733 -8.171370 2.483311 31.774364 -8.242061 -46.249970 49.869315 79.814428 -128.871490 -85.710569 11.089769 20.408288 -62.202232 12.337160 -2.033695 13.458098 13.824993 25.971159 
-260.897095 76.171356 116.074898 87.817900 0.790949 -108.134394 148.973707 -7.620107 156.991488 -72.721748 3.871241 -7.392525 108.299493 4.662156 -6.040642 21.454555 0.003081 -0.000001 129.099209 6.045207 -170.177524 -78.968987 -2.052202 16.145686 91.554922 -10.295991 3.895087 21.454555 -0.003106 -0.000017 12.283539 0.125475 0.043083 14.554378 0.244478 0.101624 14.236281 0.245219 0.100150 5.022538 17.625542 7.669745 -29.271612 -20.739144 26.475410 105.051485 -72.830293 74.876379 -60.201055 15.306493 -76.026098 -80.271737 -8.624283 2.481514 30.384428 -4.445273 -45.755007 49.848578 79.813158 -128.892022 -85.691103 11.099193 19.775351 -62.107081 12.386887 -2.032857 12.967201 13.169155 26.180677 
-262.148499 76.118858 113.121696 87.170180 0.854282 -108.270595 151.248050 -5.708405 155.597529 -71.973467 3.713116 -7.389261 110.269108 4.737664 -5.504840 21.454550 0.003094 0.000000 126.760689 4.106095 -166.135855 -74.028698 -1.550445 16.933297 92.117013 -10.941239 3.402023 21.454560 -0.003097 -0.000017 12.234733 0.074152 -0.043566 14.456584 0.153116 -0.077511 14.138481 0.152771 -0.078416 5.181775 18.039527 7.554991 -29.698233 -20.859184 26.692309 104.372175 -73.016498 75.538470 -59.897166 14.164223 -75.793639 -79.671807 -8.767907 2.465659 29.161134 -1.192925 -45.657735 49.909377 79.879540 -128.829375 -85.733019 11.047662 19.768564 -62.029900 12.439120 -2.033481 13.302415 13.233352 27.288252 
-263.197113 75.828209 110.122002 86.891290 0.890443 -108.118302 153.602458 -4.439612 154.062526 -71.588784 3.730774 -6.946787 112.439496 4.512098 -4.891851 21.454555 0.003090 0.000001 125.021121 2.283091 -162.565483 -68.182596 -1.446416 17.533005 91.746967 -11.419123 3.049407 21.454555 -0.003105 -0.000015 12.226279 0.165251 -0.134955 14.439399 0.346005 -0.248203 14.121306 0.344631 -0.250280 5.031438 17.954631 7.339816 -29.751744 -20.939444 26.511726 103.702182 -73.344771 76.177434 -60.316909 13.309167 -75.923099 -79.303557 -8.975044 2.464249 28.365282 0.065654 -43.472890 50.827928 79.800706 -127.929115 -85.530764 11.010303 20.519256 -62.230892 12.472827 -2.043431 14.215044 13.369657 28.834456 
-264.111603 75.294273 106.971603 86.514215 0.699681 -107.431506 156.172057 -2.914997 152.599335 -71.330077 4.062328 -6.343158 114.702700 4.163821 -4.353285 21.454550 0.003089 -0.000002 123.739122 1.073202 -159.710395 -61.978612 -2.021748 17.680674 90.967649 -11.418080 3.935548 21.454562 -0.003112 -0.000018 12.251971 0.291170 -0.327268 14.489620 0.621005 -0.615440 14.171522 0.617420 -0.619172 5.145120 17.779903 7.243553 -30.030733 -20.766922 26.309796 102.630723 -73.449409 77.239010 -60.672878 12.715343 -75.988935 -79.376019 -8.977200 2.465214 28.915237 0.063838 -41.420962 51.458386 79.718642 -127.312663 -85.210462 11.068754 21.700110 -62.174181 12.505193 -2.043473 13.921771 12.901627 28.188198 
-264.889008 74.573318 103.730103 86.079132 0.410151 -106.299996 158.791311 -1.306298 152.054532 -71.303268 3.961642 -5.777367 116.798803 3.835544 -3.913789 21.454553 0.003092 -0.000000 122.831636 0.230804 -157.903455 -55.942255 -3.059838 17.004514 89.924625 -10.902833 4.318647 21.454557 -0.003105 -0.000012 12.288414 0.427559 -0.563712 14.560104 0.922642 -1.069038 14.242031 0.916322 -1.074592 5.483894 18.472834 6.900823 -30.664619 -21.356789 26.695537 101.663917 -72.948408 78.253457 -60.651691 11.983129 -75.913359 -79.392022 -8.873407 2.466998 27.961772 1.409127 -40.549914 51.081817 79.979029 -127.671317 -84.956639 11.054693 22.779330 -62.523388 12.511634 -2.057263 14.039076 12.601287 27.446775 
-265.490112 73.744972 100.436996 85.726783 0.262202 -104.914895 161.350652 0.154604 151.899541 -71.331887 3.971859 -5.269460 118.770692 3.544795 -3.689883 21.454557 0.003096 -0.000001 121.877527 -0.500998 -157.623049 -50.910205 -4.267892 16.569663 88.062592 -10.581370 4.278402 21.454562 -0.003112 -0.000018 12.316685 0.600298 -0.801335 14.612802 1.297015 -1.520361 14.294737 1.287947 -1.528152 5.230893 19.449083 6.333148 -31.056638 -22.051187 27.045143 99.090001 -72.411289 80.875607 -60.898404 11.423143 -76.045762 -79.358780 -8.986078 2.467393 27.654876 1.776262 -41.262880 50.713304 80.454431 -128.012621 -84.642245 11.107186 23.709349 -63.294912 12.557440 -2.090053 14.287012 12.944449 26.828768 
-266.010193 72.847977 96.980423 85.343514 -0.010454 -103.640109 164.353080 1.549294 151.530943 -71.118013 4.154615 -4.713146 120.593205 3.232511 -3.643841 21.454555 0.003086 -0.000001 121.235571 -1.076290 -159.451886 -47.347145 -4.898258 16.633334 86.917989 -10.642707 4.090987 21.454558 -0.003106 -0.000013 12.360197 0.788004 -1.037129 14.694532 1.701396 -1.965777 14.376481 1.689624 -1.976001 5.571673 19.824679 5.982088 -31.998367 -22.420449 27.273541 98.450893 -71.645399 81.586657 -60.935430 10.684324 -76.167524 -79.173360 -9.055228 2.464242 28.125146 1.938445 -41.588448 49.610529 80.898127 -129.079510 -84.477098 11.116288 24.371058 -64.081620 12.594085 -2.123061 14.544314 13.227548 25.965318 
-266.477112 71.907387 93.386200 84.799599 -0.112171 -102.453186 167.298257 3.310385 151.878941 -70.619491 4.190115 -4.581661 122.098688 3.239311 -4.056368 21.454553 0.003095 -0.000000 120.780243 -1.213001 -162.164441 -45.706267 -5.234969 16.613286 85.951237 -10.531725 4.593659 21.454553 -0.003106 -0.000015 12.366789 0.965639 -1.312625 14.700353 2.090259 -2.492050 14.382334 2.075305 -2.504602 5.521228 19.972581 5.690894 -32.502866 -22.707502 27.357139 97.730520 -71.243729 82.343654 -61.173285 10.131752 -76.680082 -78.941906 -9.042693 2.453429 28.158594 2.157400 -41.617350 48.491334 81.141172 -130.172177 -84.455549 11.215930 24.849029 -64.479977 12.627152 -2.140875 14.552053 13.653677 25.499929 
